<svg width="256" height="46" viewBox="0 0 256 46" fill="none" xmlns="http://www.w3.org/2000/svg">
<path d="M3.72808 0.0551453L3.72807 38.9616L7.71849 32.976V4.04556H27.9329L0 45.9449H18.6921C29.6318 45.9449 37.5447 38.8094 40.5278 30.2669C43.5128 21.719 41.6426 11.4795 32.7913 5.39423L30.5306 8.6825C37.6409 13.5708 39.2623 21.787 36.7605 28.9513C34.2568 36.1211 27.7044 41.9545 18.6921 41.9545H7.45615L35.389 0.0551453H3.72808Z" fill="#CBD5E0"/>
<path d="M56.7392 35L48.6855 10.9079H52.2305L59.6302 33.1415H57.8405L65.5156 10.9079H68.682L76.1849 33.1415H74.4641L81.967 10.9079H85.2367L77.183 35H73.5692L66.5481 14.384H67.4774L60.4218 35H56.7392ZM95.7095 35.2065C93.7592 35.2065 92.0383 34.805 90.5469 34.0019C89.0784 33.1988 87.9312 32.0975 87.1052 30.6978C86.3021 29.2982 85.9006 27.6921 85.9006 25.8794C85.9006 24.0668 86.2906 22.4606 87.0708 21.061C87.8738 19.6614 88.9637 18.5715 90.3404 17.7914C91.74 16.9883 93.3118 16.5867 95.0556 16.5867C96.8223 16.5867 98.3826 16.9768 99.7363 17.7569C101.09 18.5371 102.146 19.6384 102.903 21.061C103.683 22.4606 104.073 24.1012 104.073 25.9827C104.073 26.1203 104.061 26.281 104.038 26.4645C104.038 26.6481 104.027 26.8202 104.004 26.9808H88.4819V24.606H102.283L100.941 25.432C100.964 24.2618 100.723 23.2178 100.218 22.3C99.7134 21.3822 99.0136 20.6709 98.1187 20.1661C97.2468 19.6384 96.2258 19.3745 95.0556 19.3745C93.9083 19.3745 92.8873 19.6384 91.9924 20.1661C91.0976 20.6709 90.3978 21.3937 89.893 22.3344C89.3882 23.2522 89.1358 24.3077 89.1358 25.5008V26.0515C89.1358 27.2676 89.4111 28.3575 89.9618 29.3211C90.5354 30.2619 91.327 30.9961 92.3366 31.5239C93.3462 32.0516 94.5049 32.3155 95.8127 32.3155C96.8912 32.3155 97.8663 32.1319 98.7382 31.7648C99.6331 31.3977 100.413 30.847 101.079 30.1127L102.903 32.2466C102.077 33.2103 101.044 33.9445 99.8051 34.4493C98.5891 34.9541 97.2239 35.2065 95.7095 35.2065ZM118.332 35.2065C116.772 35.2065 115.361 34.8623 114.099 34.174C112.86 33.4627 111.873 32.4187 111.139 31.042C110.428 29.6653 110.072 27.9445 110.072 25.8794C110.072 23.8144 110.439 22.0935 111.173 20.7168C111.931 19.3401 112.929 18.3076 114.168 17.6193C115.43 16.9309 116.818 16.5867 118.332 16.5867C120.122 16.5867 121.705 16.9768 123.082 17.7569C124.458 18.5371 125.548 19.6269 126.351 21.0266C127.154 22.4033 127.556 24.0209 127.556 25.8794C127.556 27.738 127.154 29.367 126.351 30.7667C125.548 32.1663 124.458 33.2562 123.082 34.0363C121.705 34.8164 120.122 35.2065 118.332 35.2065ZM108.661 35V9.46237H111.965V21.6117L111.621 25.845L111.827 30.0783V35H108.661ZM118.057 32.3155C119.227 32.3155 120.271 32.0516 121.189 31.5239C122.13 30.9961 122.864 30.2504 123.391 29.2867C123.942 28.3001 124.217 27.1643 124.217 25.8794C124.217 24.5716 123.942 23.4473 123.391 22.5065C122.864 21.5428 122.13 20.7971 121.189 20.2694C120.271 19.7417 119.227 19.4778 118.057 19.4778C116.91 19.4778 115.866 19.7417 114.925 20.2694C114.007 20.7971 113.273 21.5428 112.722 22.5065C112.194 23.4473 111.931 24.5716 111.931 25.8794C111.931 27.1643 112.194 28.3001 112.722 29.2867C113.273 30.2504 114.007 30.9961 114.925 31.5239C115.866 32.0516 116.91 32.3155 118.057 32.3155ZM132.603 35V15.1412C132.603 13.3515 133.119 11.9289 134.152 10.8735C135.207 9.79507 136.699 9.25586 138.626 9.25586C139.337 9.25586 140.014 9.34764 140.657 9.5312C141.322 9.69182 141.884 9.95568 142.343 10.3228L141.345 12.8353C141.001 12.5599 140.611 12.3534 140.175 12.2157C139.739 12.0551 139.28 11.9748 138.798 11.9748C137.834 11.9748 137.1 12.2502 136.595 12.8008C136.091 13.3286 135.838 14.1202 135.838 15.1756V17.6193L135.907 19.1336V35H132.603ZM129.505 19.4778V16.7588H141.138V19.4778H129.505ZM144.27 35V9.46237H147.574V35H144.27ZM161.68 35.2065C159.844 35.2065 158.215 34.805 156.793 34.0019C155.37 33.1988 154.246 32.0975 153.42 30.6978C152.594 29.2753 152.181 27.6691 152.181 25.8794C152.181 24.0668 152.594 22.4606 153.42 21.061C154.246 19.6614 155.37 18.5715 156.793 17.7914C158.215 16.9883 159.844 16.5867 161.68 16.5867C163.493 16.5867 165.11 16.9883 166.533 17.7914C167.978 18.5715 169.103 19.6614 169.906 21.061C170.732 22.4377 171.145 24.0438 171.145 25.8794C171.145 27.6921 170.732 29.2982 169.906 30.6978C169.103 32.0975 167.978 33.1988 166.533 34.0019C165.11 34.805 163.493 35.2065 161.68 35.2065ZM161.68 32.3155C162.85 32.3155 163.894 32.0516 164.812 31.5239C165.753 30.9961 166.487 30.2504 167.015 29.2867C167.542 28.3001 167.806 27.1643 167.806 25.8794C167.806 24.5716 167.542 23.4473 167.015 22.5065C166.487 21.5428 165.753 20.7971 164.812 20.2694C163.894 19.7417 162.85 19.4778 161.68 19.4778C160.51 19.4778 159.466 19.7417 158.548 20.2694C157.63 20.7971 156.896 21.5428 156.345 22.5065C155.795 23.4473 155.519 24.5716 155.519 25.8794C155.519 27.1643 155.795 28.3001 156.345 29.2867C156.896 30.2504 157.63 30.9961 158.548 31.5239C159.466 32.0516 160.51 32.3155 161.68 32.3155ZM179.065 35L172.284 16.7588H175.416L181.439 33.2791H179.96L186.223 16.7588H189.011L195.138 33.2791H193.692L199.853 16.7588H202.813L195.998 35H192.832L187.084 19.9252H188.048L182.231 35H179.065ZM213.784 35.2065C211.833 35.2065 210.112 34.805 208.621 34.0019C207.153 33.1988 206.005 32.0975 205.179 30.6978C204.376 29.2982 203.975 27.6921 203.975 25.8794C203.975 24.0668 204.365 22.4606 205.145 21.061C205.948 19.6614 207.038 18.5715 208.415 17.7914C209.814 16.9883 211.386 16.5867 213.13 16.5867C214.896 16.5867 216.457 16.9768 217.81 17.7569C219.164 18.5371 220.22 19.6384 220.977 21.061C221.757 22.4606 222.147 24.1012 222.147 25.9827C222.147 26.1203 222.136 26.281 222.113 26.4645C222.113 26.6481 222.101 26.8202 222.078 26.9808H206.556V24.606H220.357L219.015 25.432C219.038 24.2618 218.797 23.2178 218.292 22.3C217.788 21.3822 217.088 20.6709 216.193 20.1661C215.321 19.6384 214.3 19.3745 213.13 19.3745C211.982 19.3745 210.961 19.6384 210.067 20.1661C209.172 20.6709 208.472 21.3937 207.967 22.3344C207.462 23.2522 207.21 24.3077 207.21 25.5008V26.0515C207.21 27.2676 207.485 28.3575 208.036 29.3211C208.61 30.2619 209.401 30.9961 210.411 31.5239C211.42 32.0516 212.579 32.3155 213.887 32.3155C214.965 32.3155 215.94 32.1319 216.812 31.7648C217.707 31.3977 218.487 30.847 219.153 30.1127L220.977 32.2466C220.151 33.2103 219.118 33.9445 217.879 34.4493C216.663 34.9541 215.298 35.2065 213.784 35.2065ZM226.735 35V16.7588H229.901V21.7149L229.592 20.4759C230.096 19.2139 230.945 18.2502 232.139 17.5848C233.332 16.9194 234.8 16.5867 236.544 16.5867V19.7876C236.406 19.7646 236.269 19.7531 236.131 19.7531C236.016 19.7531 235.902 19.7531 235.787 19.7531C234.02 19.7531 232.62 20.2809 231.588 21.3363C230.555 22.3918 230.039 23.9176 230.039 25.9138V35H226.735ZM246.049 35.2065C244.535 35.2065 243.089 35 241.713 34.587C240.359 34.174 239.292 33.6692 238.512 33.0726L239.889 30.4569C240.669 30.9846 241.632 31.4321 242.78 31.7992C243.927 32.1663 245.097 32.3499 246.29 32.3499C247.828 32.3499 248.929 32.1319 249.594 31.6959C250.283 31.26 250.627 30.6519 250.627 29.8718C250.627 29.2982 250.42 28.8508 250.007 28.5295C249.594 28.2083 249.044 27.9674 248.355 27.8068C247.69 27.6462 246.944 27.5085 246.118 27.3938C245.292 27.2561 244.466 27.0955 243.64 26.9119C242.814 26.7054 242.057 26.4301 241.369 26.0859C240.68 25.7188 240.13 25.2255 239.717 24.606C239.304 23.9635 239.097 23.1146 239.097 22.0591C239.097 20.9577 239.407 19.9941 240.026 19.168C240.646 18.342 241.518 17.711 242.642 17.2751C243.789 16.8162 245.143 16.5867 246.703 16.5867C247.896 16.5867 249.101 16.7359 250.317 17.0342C251.556 17.3095 252.566 17.711 253.346 18.2388L251.935 20.8545C251.109 20.3038 250.248 19.9252 249.353 19.7187C248.459 19.5122 247.564 19.409 246.669 19.409C245.223 19.409 244.145 19.6499 243.434 20.1317C242.722 20.5906 242.367 21.1872 242.367 21.9214C242.367 22.5409 242.573 23.0228 242.986 23.367C243.422 23.6882 243.973 23.9406 244.638 24.1241C245.327 24.3077 246.084 24.4683 246.91 24.606C247.736 24.7207 248.562 24.8813 249.388 25.0878C250.214 25.2714 250.96 25.5352 251.625 25.8794C252.313 26.2236 252.864 26.7054 253.277 27.3249C253.713 27.9445 253.931 28.7705 253.931 29.803C253.931 30.9043 253.61 31.8566 252.967 32.6596C252.325 33.4627 251.418 34.0937 250.248 34.5526C249.078 34.9885 247.678 35.2065 246.049 35.2065Z" fill="#CBD5E0"/>
</svg>
