<svg width="364" height="66" viewBox="0 0 364 66" fill="none" xmlns="http://www.w3.org/2000/svg">
<path d="M5.30948 0L5.30947 55.4102L10.9926 46.8855V5.6831H39.7817L0 65.3556H26.6211C42.2013 65.3556 53.4708 55.1933 57.7193 43.0272C61.9704 30.8534 59.3069 16.2705 46.701 7.60386L43.4813 12.287C53.6078 19.2489 55.917 30.9503 52.3539 41.1536C48.7881 51.3647 39.4563 59.6725 26.6211 59.6725H10.619L50.4006 0H5.30948Z" fill="#FFD300"/>
<path d="M80.8072 49.6777L69.3373 15.366H74.3861L84.9246 47.0308H82.3758L93.3065 15.366H97.816L108.502 47.0308H106.051L116.736 15.366H121.393L109.923 49.6777H104.776L94.777 20.3167H96.1005L86.052 49.6777H80.8072ZM136.308 49.9718C133.531 49.9718 131.08 49.4 128.956 48.2562C126.864 47.1125 125.231 45.544 124.054 43.5506C122.91 41.5573 122.339 39.2699 122.339 36.6883C122.339 34.1068 122.894 31.8193 124.005 29.826C125.149 27.8326 126.701 26.2804 128.662 25.1694C130.655 24.0257 132.893 23.4538 135.377 23.4538C137.893 23.4538 140.115 24.0093 142.043 25.1204C143.971 26.2314 145.474 27.7999 146.553 29.826C147.664 31.8193 148.219 34.1558 148.219 36.8354C148.219 37.0314 148.203 37.2602 148.17 37.5216C148.17 37.783 148.154 38.0281 148.121 38.2568H126.015V34.8747H145.671L143.759 36.0511C143.792 34.3845 143.448 32.8977 142.73 31.5906C142.011 30.2835 141.014 29.2704 139.739 28.5515C138.498 27.7999 137.044 27.4241 135.377 27.4241C133.743 27.4241 132.289 27.7999 131.015 28.5515C129.74 29.2704 128.743 30.2998 128.024 31.6396C127.306 32.9467 126.946 34.4499 126.946 36.1491V36.9334C126.946 38.6653 127.338 40.2175 128.123 41.59C128.939 42.9298 130.067 43.9755 131.505 44.727C132.943 45.4786 134.593 45.8544 136.455 45.8544C137.991 45.8544 139.38 45.593 140.622 45.0702C141.896 44.5473 143.007 43.7631 143.955 42.7174L146.553 45.7564C145.376 47.1289 143.906 48.1746 142.141 48.8935C140.409 49.6124 138.465 49.9718 136.308 49.9718ZM168.527 49.9718C166.305 49.9718 164.295 49.4817 162.498 48.5013C160.734 47.4883 159.328 46.0015 158.283 44.0408C157.27 42.0801 156.763 39.6293 156.763 36.6883C156.763 33.7473 157.286 31.2965 158.332 29.3358C159.41 27.3751 160.832 25.9046 162.596 24.9243C164.393 23.944 166.37 23.4538 168.527 23.4538C171.076 23.4538 173.331 24.0093 175.292 25.1204C177.252 26.2314 178.804 27.7836 179.948 29.777C181.092 31.7376 181.664 34.0414 181.664 36.6883C181.664 39.3352 181.092 41.6553 179.948 43.6487C178.804 45.642 177.252 47.1942 175.292 48.3053C173.331 49.4163 171.076 49.9718 168.527 49.9718ZM154.754 49.6777V13.3073H159.459V30.6102L158.969 36.6393L159.263 42.6683V49.6777H154.754ZM168.135 45.8544C169.802 45.8544 171.289 45.4786 172.596 44.727C173.935 43.9755 174.981 42.9134 175.733 41.541C176.517 40.1358 176.909 38.5183 176.909 36.6883C176.909 34.8257 176.517 33.2245 175.733 31.8847C174.981 30.5122 173.935 29.4502 172.596 28.6986C171.289 27.947 169.802 27.5712 168.135 27.5712C166.501 27.5712 165.014 27.947 163.675 28.6986C162.367 29.4502 161.322 30.5122 160.538 31.8847C159.786 33.2245 159.41 34.8257 159.41 36.6883C159.41 38.5183 159.786 40.1358 160.538 41.541C161.322 42.9134 162.367 43.9755 163.675 44.727C165.014 45.4786 166.501 45.8544 168.135 45.8544ZM188.852 49.6777V21.3951C188.852 18.8462 189.587 16.8202 191.057 15.317C192.56 13.7812 194.685 13.0132 197.429 13.0132C198.442 13.0132 199.406 13.1439 200.321 13.4054C201.269 13.6341 202.07 14.0099 202.723 14.5328L201.302 18.111C200.812 17.7188 200.256 17.4247 199.635 17.2287C199.014 16.9999 198.361 16.8856 197.675 16.8856C196.302 16.8856 195.256 17.2777 194.537 18.062C193.819 18.8135 193.459 19.9409 193.459 21.4441V24.9243L193.557 27.081V49.6777H188.852ZM184.44 27.5712V23.6989H201.008V27.5712H184.44ZM205.468 49.6777V13.3073H210.174V49.6777H205.468ZM230.263 49.9718C227.648 49.9718 225.328 49.4 223.302 48.2562C221.276 47.1125 219.675 45.544 218.499 43.5506C217.322 41.5246 216.734 39.2372 216.734 36.6883C216.734 34.1068 217.322 31.8193 218.499 29.826C219.675 27.8326 221.276 26.2804 223.302 25.1694C225.328 24.0257 227.648 23.4538 230.263 23.4538C232.844 23.4538 235.148 24.0257 237.174 25.1694C239.233 26.2804 240.834 27.8326 241.978 29.826C243.154 31.7866 243.742 34.0741 243.742 36.6883C243.742 39.2699 243.154 41.5573 241.978 43.5506C240.834 45.544 239.233 47.1125 237.174 48.2562C235.148 49.4 232.844 49.9718 230.263 49.9718ZM230.263 45.8544C231.929 45.8544 233.416 45.4786 234.723 44.727C236.063 43.9755 237.109 42.9134 237.86 41.541C238.612 40.1358 238.988 38.5183 238.988 36.6883C238.988 34.8257 238.612 33.2245 237.86 31.8847C237.109 30.5122 236.063 29.4502 234.723 28.6986C233.416 27.947 231.929 27.5712 230.263 27.5712C228.596 27.5712 227.109 27.947 225.802 28.6986C224.495 29.4502 223.449 30.5122 222.665 31.8847C221.881 33.2245 221.489 34.8257 221.489 36.6883C221.489 38.5183 221.881 40.1358 222.665 41.541C223.449 42.9134 224.495 43.9755 225.802 44.727C227.109 45.4786 228.596 45.8544 230.263 45.8544ZM255.022 49.6777L245.366 23.6989H249.826L258.404 47.2269H256.296L265.217 23.6989H269.188L277.913 47.2269H275.854L284.628 23.6989H288.843L279.138 49.6777H274.628L266.443 28.2084H267.815L259.531 49.6777H255.022ZM304.468 49.9718C301.691 49.9718 299.24 49.4 297.116 48.2562C295.024 47.1125 293.39 45.544 292.214 43.5506C291.07 41.5573 290.498 39.2699 290.498 36.6883C290.498 34.1068 291.054 31.8193 292.165 29.826C293.309 27.8326 294.861 26.2804 296.822 25.1694C298.815 24.0257 301.053 23.4538 303.537 23.4538C306.053 23.4538 308.275 24.0093 310.203 25.1204C312.131 26.2314 313.634 27.7999 314.713 29.826C315.824 31.8193 316.379 34.1558 316.379 36.8354C316.379 37.0314 316.363 37.2602 316.33 37.5216C316.33 37.783 316.314 38.0281 316.281 38.2568H294.175V34.8747H313.83L311.919 36.0511C311.951 34.3845 311.608 32.8977 310.889 31.5906C310.17 30.2835 309.174 29.2704 307.899 28.5515C306.658 27.7999 305.203 27.4241 303.537 27.4241C301.903 27.4241 300.449 27.7999 299.174 28.5515C297.9 29.2704 296.903 30.2998 296.184 31.6396C295.465 32.9467 295.106 34.4499 295.106 36.1491V36.9334C295.106 38.6653 295.498 40.2175 296.282 41.59C297.099 42.9298 298.227 43.9755 299.665 44.727C301.102 45.4786 302.753 45.8544 304.615 45.8544C306.151 45.8544 307.54 45.593 308.782 45.0702C310.056 44.5473 311.167 43.7631 312.115 42.7174L314.713 45.7564C313.536 47.1289 312.066 48.1746 310.301 48.8935C308.569 49.6124 306.625 49.9718 304.468 49.9718ZM322.913 49.6777V23.6989H327.423V30.7573L326.982 28.9927C327.701 27.1954 328.91 25.8229 330.609 24.8753C332.308 23.9276 334.4 23.4538 336.883 23.4538V28.0123C336.687 27.9797 336.491 27.9633 336.295 27.9633C336.132 27.9633 335.968 27.9633 335.805 27.9633C333.289 27.9633 331.295 28.7149 329.825 30.2181C328.354 31.7213 327.619 33.8944 327.619 36.7373V49.6777H322.913ZM350.421 49.9718C348.264 49.9718 346.205 49.6777 344.244 49.0895C342.316 48.5013 340.797 47.7824 339.686 46.9328L341.647 43.2075C342.758 43.9591 344.13 44.5963 345.764 45.1192C347.398 45.642 349.064 45.9034 350.764 45.9034C352.953 45.9034 354.522 45.593 355.469 44.9721C356.45 44.3513 356.94 43.4853 356.94 42.3742C356.94 41.5573 356.646 40.9201 356.057 40.4626C355.469 40.0051 354.685 39.662 353.705 39.4332C352.757 39.2045 351.695 39.0084 350.519 38.845C349.342 38.649 348.166 38.4202 346.989 38.1588C345.813 37.8647 344.735 37.4726 343.754 36.9824C342.774 36.4596 341.99 35.757 341.401 34.8747C340.813 33.9597 340.519 32.7506 340.519 31.2475C340.519 29.6789 340.96 28.3065 341.843 27.13C342.725 25.9536 343.967 25.055 345.568 24.4341C347.202 23.7806 349.13 23.4538 351.352 23.4538C353.051 23.4538 354.767 23.6662 356.499 24.091C358.263 24.4831 359.701 25.055 360.812 25.8066L358.802 29.5319C357.626 28.7476 356.401 28.2084 355.126 27.9143C353.852 27.6202 352.577 27.4732 351.303 27.4732C349.244 27.4732 347.708 27.8163 346.695 28.5025C345.682 29.1561 345.176 30.0057 345.176 31.0514C345.176 31.9337 345.47 32.6199 346.058 33.1101C346.679 33.5676 347.463 33.927 348.411 34.1885C349.391 34.4499 350.47 34.6786 351.646 34.8747C352.822 35.0381 353.999 35.2668 355.175 35.5609C356.352 35.8223 357.414 36.1981 358.361 36.6883C359.342 37.1785 360.126 37.8647 360.714 38.747C361.335 39.6293 361.645 40.8057 361.645 42.2762C361.645 43.8447 361.188 45.2009 360.273 46.3446C359.358 47.4883 358.067 48.387 356.401 49.0405C354.734 49.6614 352.741 49.9718 350.421 49.9718Z" fill="#FFD300"/>
</svg>
